<svg viewBox="0 0 52 52" fill="none" xmlns="http://www.w3.org/2000/svg">
    <g clip-path="url(#clip0_19_1040)">
        <path fill-rule="evenodd" clip-rule="evenodd"
            d="M1.9502 21.6986H2.89409V24.3002H2.94233C3.1519 23.4614 3.62759 22.7757 4.36981 22.2429C5.11994 21.7028 5.97069 21.4246 6.92249 21.4083C7.5354 21.4083 8.07181 21.4807 8.53128 21.6262C8.98288 21.7792 9.36625 21.9851 9.68056 22.2429C10.2856 22.7915 10.6486 23.4127 10.7696 24.1064H10.8182C11.5114 22.3236 12.8582 21.4246 14.8587 21.4083C16.0441 21.4083 17.0002 21.7468 17.7257 22.4246C18.4517 23.1345 18.8227 24.2394 18.8389 25.7398V34.439H17.9074V25.7153C17.9074 24.9089 17.7902 24.2557 17.5565 23.7554C17.3224 23.2954 17.0243 22.9569 16.6612 22.739C16.3303 22.5136 15.9997 22.3681 15.6691 22.3037C15.3385 22.2471 15.0683 22.2188 14.8587 22.2188C13.6974 22.2188 12.7455 22.6181 12.0037 23.4169C11.2453 24.2074 10.8665 25.3689 10.8665 26.9013V34.439H9.92257V25.7153C9.92257 24.9089 9.80576 24.2635 9.57206 23.7795C9.34585 23.32 9.06765 22.981 8.73709 22.7631C8.40653 22.5211 8.08383 22.3681 7.76951 22.3037C7.43851 22.2471 7.15617 22.2188 6.92249 22.2188C5.97069 22.2188 5.07961 22.586 4.24882 23.32C3.37768 24.0781 2.92611 25.272 2.89409 26.9013V34.439H1.9502V21.6986Z"
            fill="currentcolor" />
        <path fill-rule="evenodd" clip-rule="evenodd"
            d="M27.7674 33.3498C28.34 32.9868 28.8078 32.5148 29.1708 31.9343C29.8486 30.7001 30.187 29.3128 30.187 27.7725C30.187 26.3042 29.8078 25.0258 29.0498 23.9367C28.2918 22.8318 27.1425 22.2592 25.6023 22.2188C23.9569 22.2351 22.7348 22.7553 21.9365 23.7795C21.146 24.8041 20.751 26.1349 20.751 27.7725C20.7343 29.3935 21.1136 30.8053 21.8878 32.0071C22.6458 33.2492 23.8841 33.8863 25.6023 33.9183C26.4489 33.9183 27.1707 33.7291 27.7674 33.3498ZM19.783 16.75H20.7265V24.4087H20.7751C21.1701 23.4007 21.8155 22.6463 22.7107 22.1461C23.5977 21.6541 24.5615 21.4083 25.6023 21.4083C27.4892 21.4246 28.8843 22.0333 29.7879 23.2351C30.6831 24.4449 31.1305 25.9573 31.1305 27.7725C31.1143 29.2725 30.9168 30.4784 30.5375 31.39C30.1267 32.3177 29.6303 33.0271 29.0498 33.5191C28.4527 34.0032 27.8523 34.3259 27.2472 34.4872C26.6181 34.6564 26.0697 34.7413 25.6023 34.7413C24.7956 34.725 24.0937 34.5841 23.497 34.3175C22.9082 34.0518 22.4122 33.7453 22.0088 33.3981C21.2666 32.608 20.8554 32.0029 20.7751 31.5833H20.7265V34.4385H19.783V16.75Z"
            fill="currentcolor" />
        <path fill-rule="evenodd" clip-rule="evenodd"
            d="M41.0556 32.1884C41.7975 31.059 42.1688 29.6958 42.1688 28.099C42.1688 26.5745 41.8058 25.2276 41.0798 24.0578C40.3218 22.8722 39.0918 22.2592 37.3899 22.2189C35.7204 22.2592 34.5228 22.8564 33.7968 24.0095C33.0712 25.1631 32.7161 26.5259 32.7323 28.099C32.7161 29.6476 33.0467 30.9866 33.7245 32.1157C34.4176 33.2855 35.6397 33.8864 37.3899 33.9184C39.0431 33.9026 40.2652 33.3254 41.0556 32.1884ZM32.7082 24.6267H32.7565C32.9581 23.9168 33.438 23.2153 34.196 22.5212C34.9382 21.8118 36.0027 21.4404 37.3899 21.4084C39.3417 21.4404 40.7854 22.1021 41.721 23.3924C42.6487 24.6587 43.1123 26.2277 43.1123 28.099C43.1123 30.0589 42.6487 31.6437 41.721 32.8539C40.7854 34.096 39.3417 34.7247 37.3899 34.7413C36.3333 34.7413 35.4018 34.4993 34.5956 34.0153C33.7644 33.5395 33.1519 32.7973 32.7565 31.7893H32.7082V39.0001H31.7648V21.6987H32.7082V24.6267Z"
            fill="currentcolor" />
        <path
            d="M45.9212 34.2903C45.5378 34.2903 45.2334 34.1843 45.0078 33.9723C44.7868 33.7558 44.6763 33.4761 44.6763 33.1333C44.6763 32.9078 44.7259 32.7116 44.8251 32.5447C44.9244 32.3733 45.0642 32.2402 45.2446 32.1455C45.4296 32.0463 45.6393 31.9966 45.8739 31.9966H47.0579V31.6854C47.0579 31.4238 46.988 31.2276 46.8482 31.0968C46.7083 30.966 46.5031 30.9006 46.2325 30.9006C45.9844 30.9006 45.7837 30.9502 45.6303 31.0494C45.4769 31.1486 45.3957 31.2817 45.3867 31.4486H44.8522C44.8748 31.1509 45.0078 30.9073 45.2514 30.7179C45.4995 30.5284 45.8265 30.4337 46.2325 30.4337C46.67 30.4337 47.006 30.542 47.2406 30.7585C47.4752 30.975 47.5924 31.2794 47.5924 31.6719V34.2227H47.0647V33.5258H46.97L47.0715 33.3701C47.0715 33.5551 47.0241 33.7175 46.9294 33.8573C46.8392 33.9926 46.7061 34.0986 46.5302 34.1753C46.3588 34.252 46.1558 34.2903 45.9212 34.2903ZM46.0566 33.8302C46.3633 33.8302 46.6069 33.7558 46.7873 33.607C46.9677 33.4536 47.0579 33.2461 47.0579 32.9845V32.4229H45.9212C45.7137 32.4229 45.5446 32.4861 45.4138 32.6124C45.283 32.7386 45.2176 32.9055 45.2176 33.113C45.2176 33.3295 45.292 33.5032 45.4409 33.634C45.5897 33.7648 45.7949 33.8302 46.0566 33.8302ZM48.8415 34.2227V33.7355H50.1676V30.9885H48.9836V30.5014H50.7089V33.7355H51.9674V34.2227H48.8415ZM50.3774 29.818C50.2376 29.818 50.1248 29.7819 50.0391 29.7097C49.9579 29.6376 49.9173 29.5383 49.9173 29.412C49.9173 29.2812 49.9579 29.1775 50.0391 29.1008C50.1248 29.0241 50.2376 28.9858 50.3774 28.9858C50.5172 28.9858 50.6277 29.0241 50.7089 29.1008C50.7946 29.1775 50.8375 29.2812 50.8375 29.412C50.8375 29.5338 50.7946 29.6331 50.7089 29.7097C50.6277 29.7819 50.5172 29.818 50.3774 29.818Z"
            fill="currentcolor" />
    </g>
    <defs>
        <clipPath id="clip0_19_1040">
            <rect width="52" height="52" fill="currentcolor" />
        </clipPath>
    </defs>
</svg>